<?xml version="1.0" encoding="utf-8"?>
<!-- Generator: $$$/GeneralStr/196=Adobe Illustrator 27.6.0, SVG Export Plug-In . SVG Version: 6.00 Build 0)  -->
<svg version="1.1" id="Ebene_1" xmlns="http://www.w3.org/2000/svg" xmlns:xlink="http://www.w3.org/1999/xlink" x="0px" y="0px"
	 viewBox="0 0 814 538.3" style="enable-background:new 0 0 814 538.3;" xml:space="preserve">
<style type="text/css">
	.st0{fill:#D9FF57;}
</style>
<path class="st0" d="M804.8,490.7v3.7c0,2.6-1.9,12.7-4.1,14.3c-2.5,1.8-6.7,2.9-9.8,3.7c-4.5,1-14,4.2-18.4,4.2s-8.3,2.1-12.1,2.1
	c-3.2,0.3-5.4,2.4-7,4.5c0,0-6.4-1.8-8.9-3.4c-4.5-0.5-8.6-0.8-13-1c-3.8,0.8-7.9,1.8-11.8,2.6c-4.8-0.3-9.5-0.3-14.6-0.5
	c-4.8-0.3-15.6-0.3-20,1.6c-3.8,0.3-7.3,0.3-11.1,0.3c-1.9,1.8-3.8,3.7-5.7,5.8c4.1,5.3,7.6,6.6,1,9c-6.4,2.1-3.8-0.3-5.7-3.9
	l0.3-3.7c-1.3,0.8-2.5,1.3-3.8,2.1c-1.6,0.3-6,1.3-6.7-0.3c1.3-2.4,2.2-4.5,3.5-6.6c-2.9-0.5-5.4-1.3-8.3-1.8
	c-2.9,1-5.7,2.1-8.6,3.4c-4.5,0.5-8.6,1-12.7,1.6c-6,0.5-11.8,0-17.8-0.3c-45.8-1.6-92.2-2.1-138.2-3.7c-1.6,0-3.2,0.3-4.8,0.3
	c-4.8,0.5-28.6-2.4-32.7-4.2c-4.5-1.8-16.8-3.7-21.9-4.2c-4.8-0.5-49.6,10.9-57.8,12.7c-3.8,0.8-13.4,2.6-11.1,0.3
	c-1.3,0.3-2.5,0.3-3.8,0.5c-3.2,0.5-19.4-1-21.6-2.1c-1.9-1-7.9-1.6-7.9-1.6c1.3,1.8,2.9,3.9,4.1,5.8c-5.7-0.5-11.1-1-16.5-1.6
	c-2.9-1.3-5.4-2.6-8.3-3.9v3.7c-1.3,0.5-2.5,1.3-3.8,1.8c-1.6,0.3-7.3-1-8.3-2.4c1.6-1,3.2-1.8,4.8-2.6v-6c-2.2-1.6-4.1-2.9-6.4-4.5
	c0.6,2.1,1.3,4.2,1.9,6.3c-5.7,1.8-6.7,3.4-13,0.8c-2.5-0.8,0,0-1.9-1.6c-1.6-1-3.2-1-5.1-0.5c-0.6,1.6-1,3.4-1.6,5
	c-4.8-0.5-17.2-2.1-21.6,0c-7,2.6-14,5.5-20.7,8.2c0,0-12.4-1.8-17.5-3.4c-6.4-1.8-6.7-0.5-8.6-5.5c-1.9-4.7-15.9-1.8-15.9-1.8
	c-9.9,0.8-19.7,1.8-29.6,2.6c-2.2-0.3-4.4-0.5-6.4-0.8c-7.3,2.6-15.6,3.9-23.5,3.2c-18.1-2.4-35.9-4.2-53.7-6.6
	c-2.9-0.5-9.9-2.6-9.9-2.6l-12.4-1.3l-15.6,1.3l-5.7-4.7l-7.3-9.3v-20.1l5.1-5l-2.2-6l2.5-15.9l1.6-7.6l1.6-5l0.3-2.1v-6.8l-2.9-3.7
	l-0.3-2.4v-4.2l2.2-3.9l0.3-4.7v-5.8l-3.2-3.9c0,0,0.3-3.9,0.9-5.5s0-11.7,0-11.7l-1.3-11.1l0.3-8.5l-1.9-4.7v-11.9l1.6-7.6
	l-1.6-2.1v-7.6l0.3-6.6v-7.4l-0.6-7.6L9.6,310v-3.7l1.6-5.3l-0.3-11.4v-3.7l0.9-3.4l-0.3-6.8l2.9-10.9l-3.8-8l0.9-9l0.3-5v-3.9
	l-0.3-8.5l0.3-2.6l0.3-4.5v-8.5l-0.3-4.7l0.9-8v-9.6l2.5,0.3l3.2-3.9l-0.9-3.7h-4.8l-0.9-2.9l0.9-2.6c0.9-2.6,2.5-2.6,2.5-2.6
	l-2.9-8.5l2.2-13v-4.2l-3.8-4.2l-1.9-4.5l-0.3-20.1l4.1-6.6l-1.6-4.2l-0.6-7.4l-1.3-4.5L9.7,96l2.2-5.3L9,87.8V66.4l0.9-4.5l0.6-4.2
	l-0.3-18.8l-6-1.8l2.5-5.3l5.4-4.7l-0.3-2.9l1.9-5.3l7.3-5.3l8.9,0.3l5.7-3.7l8.6-0.3l9.2-0.3l9.2-0.8c0,0,1.7,1.9,9.7,2.7
	c7.1,0.7,2-5.4,2-5.4l28.6-4.3l15.3,3.6l13.1-2.9l18.1-1.6c11.8,0.8,21.9,1.8,25.4,2.1c39.1,3.7,40.2,1,56.9-1
	c9.1,2.1,16.5,2,24.5,2.8c5.1,0.5,16.2,0.3,16.2,0.3s-4.7-3.3-6.9-4.6c-1.9-1,7,0,6-0.3h5.4c0,0,5.7,1.3,8.9,1.6
	c2.5,0.3,7.6,0.3,7.6,0.3c-2.2,1.3-4.5,4.1-7.1,5.4c44.8,2.1,90.9,0.3,135.4,2.7c6,0.5,41.1-3.5,45.5-5.3c4.8-2.1,12.6,3.2,16.5,2.4
	c3.5-0.5,13.3-1.6,16.7-1.3c7,0.5,17.5-1,24.8-1.8c-1.3,1-5.3,3.9-6.6,5.2c12.7,0.3,25.4,0.8,38.1,0.5c6.7-0.3,13.3-0.5,20-0.8
	c8.6,0,17.2,0.3,25.7,0.3c0.6,0.3,3.5,1.8,4.2,2c4.1,1.8,77.5,5,71.1,5.8c0,0,4.5-3.2,7.4-3.7c1.9-0.5,6.4-3.4,6.4-3.4
	c2.5,0.3,4.8,0.5,7.3,1c0,0,7.6-1,9.2,0.5c2.9,2.4,8.2,3.7,11.7,3.9c-1-1-7.8-11.4-3.7-11.1c3.8,0,7.9,0.3,11.8,0.5
	c3.5-0.8,6,0.5,7.6,3.2c2.5,4.5,3.6,9.6,9.2,4.2c7.9-3.4,6.5-2.1,14.1-2.3c-0.3,0,10.2-0.8,12.7-2.6c1.9-1.6,4.5-1.8,7-2.9
	c2.2-0.8,2.5-2.1,5.1,0c2.2,1.8,0.6,4.5,3.2,3.2c2.9-1.6,8.6,0,8.6,0s-0.3,0,2.2-0.8c3.7-1.2-4.8-0.7-4.8-0.7c1,0,2.9-2,3.9-0.1
	c0,0,1.6,1,1.9,1s1.9,0.3,1.9,0.3h2.2l3.8,0.5c0,2.1,2.9,2.1,2.9,2.1c5-2.3-4.9-1.5,0,0c5.7,0.5,1.6,17.2,3.2,20.1l1.5,3.1
	c-2.9,6.6-4.4-18.2-4.4-11.3c0.6,8.8,1,13-0.6,21.1c-1.6,8.8-1.9,38.6-3.8,48.1c-0.3,6.6-1.3,11.1-2.5,14l0.6,12.5l-4.5,7.4v4.2
	l3.8,4.7l-0.3,7.4l-3.8,8.5l3.8,4.5l2.2,4.5l-0.3,13.5l0.3,14l-1.3,3.7v9.6l0.3,12.5l-3.5,5.5l2.5,6l0.3,4.5l-3.8,16.4l2.5,10.6v6.3
	l-1.3,7.4v5l3.5,7.4l-3.2,7.4l0.3,3.7v3.2l2.2,6.8l-0.3,6.8l-1.3,9.8l0.3,16.1l1,15.9l-1.3,6.3v8.2l1.3,3.2v8.8l-1.6,10.6v5.8
	l-4.5,2.6v5l3.8,0.8v20.9l1.3,5l-1,9.3v9.6l2.2,6.8l-2.2,8.2l3.8,6.6v4.7l-2.2,9.8l1.6,8.8l0,0l0.9-0.4l0,0L804.8,490.7z"/>
</svg>
