<?xml version="1.0" encoding="UTF-8" standalone="no"?>
<!DOCTYPE svg PUBLIC "-//W3C//DTD SVG 1.1//EN" "http://www.w3.org/Graphics/SVG/1.1/DTD/svg11.dtd">
<svg width="100%" height="100%" viewBox="0 0 230 232" version="1.1" xmlns="http://www.w3.org/2000/svg" xmlns:xlink="http://www.w3.org/1999/xlink" xml:space="preserve" xmlns:serif="http://www.serif.com/" style="fill-rule:evenodd;clip-rule:evenodd;stroke-linejoin:round;stroke-miterlimit:2;">
    <g transform="matrix(1,0,0,1,-27.3,-30.1347)">
        <path d="M145.5,31C144.6,30.6 143,30.5 143,30.5L141.4,30.5C141.4,30.5 140.9,30.6 140.3,30.3C139.7,30 139.2,30.2 139.2,30.2L135.4,30.2C135.4,30.3 132.6,30.2 132.6,30.2C130.7,30.4 129.3,30.1 127.6,30.4L123.4,31.4L122.4,31.4C122,31.4 121.6,31.5 121.1,31.6L119.5,32.8L119.5,31.8C118.5,32 117.2,32.2 115.4,32.6C114.3,33.1 112.8,33.7 111.2,34.1L109,34.1L109,33.8C104.4,35.4 104,35.6 103.2,36.3C102.9,36.6 102.4,37 101.1,37.7L99.9,37.7L99.1,38.3C98.4,38.8 98,39.1 96.4,39.8L95.8,39.8L95.5,39.1C91.2,40.6 88.5,42.3 86.3,43.7C84.6,44.8 83.2,45.6 81.7,46L81.4,46L81.2,46.4C80.9,46.8 80.1,47.7 80.8,48.5C80.4,48.5 80,48.8 79.6,48.9C78.1,49.4 76,50 73.3,52C72.3,52.5 71.4,53.3 70.6,54C69.6,54.9 68.6,55.8 67.3,56.5L66.7,56.7L66.2,58.8L64.6,58.8C62.6,60.6 59.9,63.3 58.8,64.3C57.9,65.2 57,66.2 56.1,67.4L55.9,66.9L54.5,69C54.5,69 54.3,69.2 54.2,69.4L53.7,69.1C52.8,70.4 51.8,71.5 50.8,72.7C49.6,74.1 48.3,75.5 47.3,77.2L48.2,77.8C47.6,78.5 47.2,78.8 46.7,79.2C45.5,80.1 44.3,81.2 42.4,84.8C42.2,85.2 42,85.5 41.8,85.9L42.1,85.9C41.5,86.9 41,87.6 40.6,88.1C39.4,90.2 39,91 39.4,91.6C39.2,92.2 39,92.8 38.9,93.4C38.9,93.8 38.7,94.3 38.6,94.7L38.3,94.7L37.9,95.5C36.2,99.1 36.1,99.6 36.2,100.3L36.2,101L35.8,101L35,100.8L34.4,103.4C33.7,106.3 33.3,107.6 32.5,109.8L32.5,110L30.2,117.9C30.1,118.3 30,118.8 29.9,119.2C29.8,119.8 29.7,120.4 29.6,120.8L29.8,120.8L29.5,122.5L29.3,125.2L29.1,125.2C29.1,125.6 29,125.9 29,126.3L28.5,126.3L28,132.5C27.9,132.9 27.8,133.4 27.7,134.2C27.7,134.5 27.6,134.8 27.6,134.9L27.9,134.9C27.9,135 27.5,135 27.5,135C27.4,136.5 27.4,138.3 27.5,140.2L27.5,141.3C27.5,142.5 27.6,143.7 27.6,145L27.3,146.8C27.4,148.1 27.5,148.8 27.8,149.1C27.8,149.4 27.9,149.7 27.9,150.2L28.2,156.7C28.4,158.6 28.8,160.8 29.4,163.5L29.6,166.6C29.8,167.6 29.9,168.4 30.5,168.6C30.5,168.8 30.6,169.1 30.7,169.3C31,170.5 31.2,171.1 31.3,171.4C31.1,171.8 31.3,172.3 31.3,172.8C31.6,173.8 32,175.1 32.5,176.5L32.5,176.7C32.1,177.1 32.3,177.7 32.5,178.6L32.7,179.6L33,179.6C33.4,180.4 34.2,182.7 34.9,184.4C36.7,189.4 37.5,191.2 38.2,191.9L38.4,192.4C39.3,194.6 39.7,195.3 40.3,196.1C40.6,196.6 41,197.1 41.4,198L41.4,198.6L41.8,199.5L42.3,199.3C42.3,199.5 42.5,199.7 42.7,200C43.1,200.7 43.5,201.4 43.7,201.7C43.7,201.8 45.8,205.1 45.8,205.1C46,205.4 46.1,205.7 46.3,205.9C46.3,206 46.3,206.1 46.5,206.3L46.3,205.9L48.8,209.9L49.3,210.5L49.5,210.7L51.2,212.6L51.6,213.1C52.8,215.4 53.2,215.9 55,217.9C55.2,218.2 55.5,218.5 55.8,218.8C56.6,220.1 57.5,221.2 58.7,222.6C59.5,223.5 60.4,224.6 61.4,225.8L62,225.4C62,225.5 62.3,225.7 62.4,225.8C62.4,226 62.7,226.2 62.9,226.4L62.6,226.7L64,228.3L64.5,228.5L65.6,229.5C67,230.7 67.5,231.1 68,231.4C68.3,231.6 68.5,231.8 68.9,232L69.7,232.8C71.2,234.3 71.6,234.6 71.8,235.1L72.1,235.4C73.3,236.4 73.9,236.9 74.5,236.6C76.1,237.9 77.5,239 79,240.1C80.2,240.9 81.5,241.6 82.9,242.4L84,243C84,243.1 83,243 83,243L87.4,245.3C88.3,245.8 88.6,245.9 89.1,245.9C89.6,245.9 89.9,246.1 90.9,246.6C90.9,246.7 91.2,246.7 91.2,246.7C91.5,246.8 92.7,247.5 93.6,248C95.4,249.1 97.7,250.5 99.9,251.3L100.4,251.9L100.7,251.9C102.2,252.5 103.3,252.8 104.1,253C106.3,253.7 106.8,253.8 110.1,254.5L113.9,255.9C114.5,256.1 115.3,256.5 116.5,256.9L116.5,256.7C116.5,256.7 116.7,256.7 116.7,256.8L116.7,256.6L117.1,256.6L117.4,256.8C117.7,257 118.2,257.1 119,257.1L119.3,257.1C119.6,257.4 119.8,257.7 120.1,257.9L120.7,258.3L121.3,258L127.9,259.5C130,259.6 132,259.6 134.4,259.3L134.4,259.8C135.3,259.9 135.5,260 135.5,260C135.5,259.9 135.5,260.3 135.5,260.3L142.3,260.3C142.8,260.6 143.7,260.6 145,260.7C145.4,260.7 145.9,260.7 146.4,260.8L150,261L148.5,259.9C149.2,259.8 149.9,259.8 150.6,259.7L150.6,260.1C151.7,260.3 152.6,260.3 153.5,260.1L151,261.3L158.5,258.9C159.7,258.5 162.1,258.2 163.3,258.1L163.3,258.4C166.8,258 176.6,255.7 180.5,253.5L181.2,254.2C182,253.6 182.7,253.5 183.6,253.3C183.9,253.3 184.2,253.2 184.5,253.1L184.7,253.3L184.9,253C185.5,252.8 186,252.6 186.6,252.1C187.6,251.8 192,250.5 201,245.5C204.1,243.8 207.6,241.4 211,238.7L211,239.5C211,239.5 212.8,237.3 213.1,237.1C219.3,232.2 225.2,226.8 228.1,224.2L229.4,223C232.6,220.1 242.5,205.3 242.9,204.7C242.9,204.633 242.933,204.6 243,204.6C243.7,204.4 244.1,203.7 244.5,203C245.6,202 246.4,201 245.7,200.1L246.4,198.5L246.2,198.5C246.6,197.6 247,196.8 247.4,196.1C247.7,195.9 247.9,195.6 248,195.2C248.1,195.1 248.1,195 248.2,195L248.4,194.8C248.6,194.5 248.7,194.2 248.9,193.8L248.2,193.4C248.9,193.1 249.3,192.2 249.7,191.2L249.9,190.7L249.7,190.4C249.7,190.1 250,189.4 250.4,188.4C250.6,188 250.8,187.3 250.5,186.9C250.6,186.7 250.7,186.6 250.7,186.4C251.1,185.6 251.5,184.8 252,183.2L251.4,181.2L251.4,179.8C251.8,178.6 252.2,177.4 252.5,176.2L252.5,175.9C253.3,173.2 254,171 254.6,169L254.8,168.5C255.4,166.5 255.7,164.6 256.1,162.3L256.3,160.9L256.3,156.7C256.8,152.7 257.2,149.2 257.2,145.3C256.7,143.9 256.4,141.8 256.3,140.3L256.3,138.6C256.3,136.8 256.1,133.8 255.7,130.4L257,132.3C257,132.3 255.2,126.5 255.1,125.9C254.6,122.8 254.1,119.8 253.6,117.4L253.3,116.7C253,115.9 252.7,115.4 252.5,115.1C251.6,111.8 250.7,108.1 249.5,105L248.6,101.9L248.4,101.9C247.2,99 245.8,96.6 244.3,93.7L244.3,93.3C244.4,93.3 244.3,93 244.3,93C244,92.4 244,91.8 243.5,91.2C243.5,90.9 243.5,90.6 243.3,90.2L243.1,89.5L242.3,89.5C242.2,89.4 242.1,89.3 241.9,89C241.1,87.6 240.3,86.2 239.5,85L238.5,85.3L239.4,84.7C239.4,84.7 237.6,82 236.8,80.8C236.8,80.8 236.7,80.6 236.5,80.3C236.4,80.3 236.2,80 236.1,79.8C231.8,73.7 227,68.1 221.7,63C216.4,57.9 221.4,61.3 221.1,61C220.5,60.4 219.6,61 218.9,60.4C218.2,59.8 220.1,59.2 219.3,58.6C218.5,58 216,57.9 215.7,57.6C210.6,53.3 205.1,49.5 199.4,46.2L197.3,44.6L197.7,45.7L197,45.2L195.7,44.4C195.7,44.4 195.9,44.7 195.7,44.7L194.8,44.3L195.1,44C191.7,42.2 188.1,40.6 184.5,39.2L181.1,39L182,38.3C177.6,36.7 173.1,35.4 168.5,34.3C163.9,33.2 167.8,33.1 166.8,32.9C165.8,32.7 164.9,33.6 164.7,33.5C159.3,32.5 153.8,31.8 148.1,31.6C148.1,31.6 147.3,31.6 146.4,31.3L145.5,31ZM245.3,148.5C245.1,150.1 244.9,151.7 244.9,153.8C244.9,153.8 245,154.9 245,155.4C245.1,155.9 245.1,157.2 245.1,157.2C244.5,162.1 243.5,167.2 242.1,172.3C241.9,173 241.6,173.8 241.3,174.7C240,178.5 238.1,184.2 236.1,187.5L235.4,188.8C235.2,189.4 235.5,189.4 235.5,189.8C234.3,192.4 232.9,194.8 231.5,197.3L230.3,199L230.4,199C229,201.3 227.7,203.5 226.1,205.6L225.7,205.6L224.6,207.4C224.4,207.5 223.9,207.6 223.7,207.9L223.2,208.4L223.6,208.8C223.6,208.9 223.5,209 223.5,209.1C222.7,210.1 221.9,211.1 221,212.1L220.8,212.4C220.2,213 219.7,213.7 219.1,214.3L218.5,215C218.433,215.067 218.3,215.167 218.1,215.3L217.7,215.8C213.3,220.5 208.2,224.5 203.1,228.3L211.2,225C211.2,225 201.2,231.1 200.7,231.5C199.2,232.5 197.1,232.9 195.5,233.9C193.9,234.9 195,234.2 194.7,234.4C191.9,236 187,240 187,240L183.8,240L174.6,245.1L175.3,243.3C171.7,244.5 168,245.6 164.3,246.4C160.6,247.2 162.7,247.1 163.1,247C163.5,246.9 161.5,247 161.5,247C160.3,247.2 161,247.1 159.7,247.3C158.4,247.5 157.4,247.9 157.4,247.9C157,247.9 156.9,247.7 156.6,247.8C153.1,248.3 149.5,248.6 145.9,248.7C142.3,248.8 145.3,248.7 145,248.7L145.7,250.4L142.1,248.7C141.3,248.7 140.6,248.7 139.8,248.6L133.9,248.1C132.4,248.2 130.2,247.8 127.8,247.4C126.5,247.2 125,246.9 123.4,246.7C123.4,246.6 121.1,245.3 121.1,245.3L118.2,245.6L117.5,245.4C113.9,244.5 111.7,243.6 109.2,242.7C106.7,241.8 108.6,242.7 108.3,242.7C108,242.7 107.9,241.9 107.6,242.1C107.3,242.3 106.7,242.1 106.5,241.7C106.3,241.3 106.1,241.7 105.8,241.6C104.1,240.9 102.2,240 99.8,238.9L98.1,238.1L97.5,237.8C97.5,237.8 97.3,237.7 97.2,237.7L95.8,237.1C95.2,236.8 94.5,236.4 93.8,236.1C91.1,234.6 88.8,232.9 88.4,232.5L87.3,231.7L87.5,232.5L85.8,230.8L85,230.6C84.8,230.4 84.6,230.3 84.4,230.2L84.6,229.9C83.5,228.8 81.6,227.4 80.3,226.4C79.7,226 79.3,225.6 79,225.4L77.7,224.1L78.7,225.4C77.7,224.6 76.8,223.8 75.8,223L75.6,223.6C75.6,223.6 75,222 74.2,222C73.4,222 73.5,222 73.7,221.2C73.9,220.4 73,220.4 72.8,220.2C71.6,219.1 70.2,218.6 69.1,217.5C68,216.4 64.4,214.7 64.4,214.7C64.2,214.5 70.1,216.9 69.9,216.7C69.5,216.3 67.5,214.8 67,214.4C65.8,213.1 65.2,212.1 65.2,212.1L61.4,208.6C61,208.1 60.8,207.6 60.5,207.1C59.9,206.2 59.2,205 57.5,202.8C56.8,202.2 56.1,201.2 55.5,200.2C55.5,199.8 55.5,199.4 55.2,199C55.2,198.8 55,198.6 55,198.4L55.3,198.2C53.2,195.2 52.9,194.9 52.3,194.4C52.1,194.2 51.8,194 51.2,193.4L49.7,188.7C49.5,188 49.3,187.4 49,186.8L47.1,185.5L47.6,183.5C47.3,182.9 47.1,182.4 46.8,181.8C46,180.1 45.5,178.9 45.6,177.7L45.6,177.2L45.3,176.9C45.1,176.6 44.3,175.8 43.5,176.2C43.2,174.2 43.2,170.7 43.3,170.2L40.4,170L43.4,169.8L43.4,169.6C43.1,168.3 41.2,161 40.7,156.7C40.4,154.7 40.3,153.4 40.3,152.5L40.7,150.5L40.7,150.2L41.2,150C40.8,148.4 40.9,146.9 41,145.3C41,144.3 40.1,143.3 40.1,142.3C40.1,141.6 40.4,141.2 40.6,140.7C41,139.6 41.6,138.3 41.6,134.3L41.3,134.3C41.3,133.7 41.6,133.1 41.8,132.7L41.8,132.4C42.1,130.7 42.2,129.8 41.7,129.4L41.7,127.3L41.9,127.3L42.1,126.3C42.7,123.4 42.6,122.7 42.4,122L42.4,121.7L42.7,121.7L43.9,119.2C44.2,116.6 44.4,115.7 45.3,113.3L45.8,112.2C46.3,111.3 46.7,110 47.1,108.9L47.7,107.5L47.5,107.7C47.5,107.1 47.8,106.7 47.9,106.3L47.7,106.3C48,105.2 48.3,104.2 48.7,103L49,103C49,102.8 49.2,102.6 49.3,102.3L49.8,102.5L51.4,98.3L52.3,97L50.8,95.6L53.1,95.6C53.6,94.8 54.1,93.7 54.6,92.6C54.6,92.3 54.9,92 55.1,91.7L55.3,91.4L55.1,92.6L56.9,88.8L57.2,88.4C57.8,87.5 58.1,87 58.1,86.5C58.1,86.3 58.3,86.2 58.5,85.9C59.4,84.8 60.2,83.7 61,82.7C62.2,81 63.5,79.3 65,77.5L66.9,75.8C67.4,75.2 68.5,75 68.3,74.4L68.6,74.1C69.1,73.5 69.5,73.1 69.7,72.9C70.1,72.9 70.5,72.5 70.8,72.3C71.4,71.7 71.5,70.6 72.3,69.8C72.8,69.8 73.4,69.5 74.1,69L74.5,68.7L74.5,68.4C74.8,68 75.8,67 77.1,65.9C78.4,64.8 77.7,65.4 78.1,65.1C78.1,65.1 70.5,67 71.2,66.5C71.2,66.5 82.1,62 82.3,61.6L82.6,61.4C83.9,60.6 84.5,60.2 85,59.7C85.4,59.4 85.8,59 86.5,58.6L87.1,58.6L96,53.5L95.1,53.3L95.3,53.3C95.5,53.3 95.7,53.1 95.9,53L96.8,52.7L97,52.5C99.1,50.8 114.1,46.3 120.3,44.8C125.1,43.7 130.7,43 132.6,42.8L131.8,43.3L136.1,42.8C136.9,42.8 137.3,42.6 137.6,42.3C137.6,42.3 137.9,42.3 139,42.1L139.3,42.1C139.5,42.1 140.3,41.9 142.2,42.1C143.5,42.3 145.1,43.2 146.6,43.1L147.1,43.5L149.4,43L155.2,43L158.3,43.9C158.8,44.1 159.9,44.4 160.9,44.6L160.6,44.3L160.7,44.3L163.2,45L164.7,46.2L164.1,45.3L167.1,46.2L169.1,46.9L176.2,49.2C178.6,50 182.7,52 182.7,52L185.2,53.2L184.8,52.1L185.8,53C186.9,54 187.9,54.3 188.9,54.5L191.6,55.5C191.9,55.5 192.3,55.8 192.8,56.1L193.5,56.5C194.1,56.9 194.6,57.2 194.9,57.5L194.7,57.8L197,59.2L202.2,62.8C203.1,63.4 202.7,64 203.3,64.5L205,66.6C205.7,66.8 207.8,67.6 208.6,68.5C209,68.9 209.4,69.3 209.8,69.6L210.3,70.2L210.3,70.5L210.7,70.7C211.4,71.6 212.4,72.5 214.2,74L214.8,74.5C215,74.7 215.2,74.9 215.5,75.1C215.9,75.4 216.2,75.7 216.8,76.7C216.9,76.9 217,77.1 217.1,77.2L217.2,77.2C217.4,77.4 217.6,77.7 217.9,78L217.9,78.4L219.2,78.9C219.9,79.3 220.6,79.7 221.2,80.2C221,80.8 221.1,81.5 221.3,82.2L221.5,82.6C221.5,82.6 226.4,88.7 231,96.6C234.3,102.3 239.9,112.7 240.8,115.6L234.9,108.6C234.9,108.6 238.8,115 239.6,116.9C240.4,118.8 242.3,123.9 242.5,124.8C242.4,125.4 242.4,126.9 242.7,127.6C242.8,127.8 242.9,128.1 243.2,128.6C243.5,129 243.7,129.3 243.8,129.5C243.9,129.6 243.9,129.7 243.9,129.7C243.9,129.8 243.9,129.9 243.8,130.1C243.7,130.4 243.6,130.8 243.5,131.5L243.5,131.9C243.4,132.6 243.4,132.8 243.7,133.8C244,134.7 245,137.5 245.2,138.1C245.3,139 245.3,139.9 245.3,140.7L244.9,141.9L245.2,141.9C245.4,144.6 245.2,146.5 244.9,148.5L245.3,148.5ZM55.1,199.1C55.3,199.1 55.5,199.2 55.6,199.2L55,199.6C55,199.4 55,199.3 54.8,199.1C54.8,199.2 55,199.1 55.1,199.1L55.1,199.3L55.1,199.1ZM218.4,77.3L217.7,77.3L218.1,77.1L218.4,77.3Z" style="fill:rgb(217,255,87);fill-rule:nonzero;"/>
    </g>
</svg>
