<?xml version="1.0" encoding="utf-8"?>
<!-- Generator: $$$/GeneralStr/196=Adobe Illustrator 27.6.0, SVG Export Plug-In . SVG Version: 6.00 Build 0)  -->
<svg version="1.1" id="Ebene_1" xmlns="http://www.w3.org/2000/svg" xmlns:xlink="http://www.w3.org/1999/xlink" x="0px" y="0px"
	 viewBox="0 0 1440.3 327.3" style="enable-background:new 0 0 1440.3 327.3;" xml:space="preserve">
<style type="text/css">
	.st0{fill:#D9FF57;}
</style>
<path class="st0" d="M1421.7,283.7v2.3c0,1.6-3.4,7.8-7.6,8.7c-4.4,1-11.8,1.7-17.3,2.2c-7.7,0.7-24.6,2.7-32.9,2.7
	s-14.2,8.7-21.1,8.7s-9.7,5.3-12.8,6.6c0,0-11.4-5-15.9-6.1c-7.6-0.3-15.4-9.8-22.9-10c-7,0.5-16.1,4.3-23,4.7
	c-8.7,0-15.4-1.5-24.1-1.6c-8.4,0-27.7,0-35.4,0.9c-6.6,0-13.1,0-19.6,0.3c-3.3,1.1-3.4,7.2-6.7,8.3c7.2,3.1,9.4,14.1-2.2,15.4
	c-11.1,1.2-7-0.2-10.3-2.4l1.2-17.1c-2.2,0.5-11.5,9.7-13.7,10.1c-2.6,0.3-7-1.2-8.2-2.3c2-1.4,7.2-9.5,9.3-10.8
	c-4.9-0.4-9.8-0.8-14.5-1.1c-5.1,0.7-10,1.3-15.1,2c-7.6,0.3-15.1,0.7-22.8,0.9c-10.8,0.3-21,0-31.8-0.2
	c-81.5-0.9-158.7-4.5-240.5-5.4c-2.7,0-14.9,8.3-17.7,11c-8.7-3.7-46-9-53.4-10.1c-8-1.1-30.8-5.3-40.2-5.7
	c-8.5-0.3-86.8,9.8-101.7,10.9c-6.7,0.5-15,3.9-15,3.9s-9.4-3.4-11.5-3.3c-5.7,0.3-34.2-0.6-38.5-1.3c-3.5-0.7-14-0.9-14-0.9
	c2.4,1.2,13,7.5,15.7,8.6c-9.9-0.3-27.8-0.2-37.4-0.5c-5-0.8-9.9-7.2-14.8-8c0,0.9-11.2,8-11.1,8.7c-2.3,0.4-4.7,0.8-7,1.1
	c-2.9,0.3-9.9-4.5-11.6-5.4c2.8-0.6,13.8-3.4,16.7-3.9c0-1.2-0.3-6.4-0.2-7.5c-3.8-0.9-5.2-3.9-20.8-8.2c5.9,6.4,11.6,8.1,12.7,9.3
	c-10.4,1.1-11.6,5.9-22.9,4.3c-4.5-0.6-2.6-3.4-5.6-4.4c-2.8-0.7-5.7-0.7-8.9-0.3c-1,1,0.7,5.4-0.3,6.5c-8.3-0.4-37.2-2.2-44-2.6
	c-10.1,3.9-27.8,10.1-39.9,11.7c0,0-13.8-2.8-22.2-6.4c-11.5-1.1-11.4-3.7-15.3-6.9c-3.4-2.8-28.4-1.1-28.4-1.1
	c-17.7,0.5-35.1,1-52.7,1.6c-4-0.2-7.7-0.3-11.4-0.5c-13.1,1.6-28.9,9.5-43.1,9.1c-31.8-1.3-63.7-2.7-95.4-4
	c-5.3-0.3-11.7-7.8-11.7-7.8L55.6,300l-27.8,0.9l-9.9-2.8L5,292.5v-12.2l8.9-3.1l-4-3.7l4.5-9.7l2.5-4.7l2.6-2.9L20,255v-4.1
	l-4.8-2.3l-0.5-1.5v-2.6l3.9-2.4l0.5-2.8v-3.5l-5.7-2.4c0,0,0.8-2.5,1.8-3.3s0-7.2,0-7.2l-2.2-6.8l0.8-5.1l-3.5-2.8v-7.3l3.1-4.7
	l-2.6-1.2v-4.5l0.8,13.9v-4.5l-0.9-4.6l-0.5-3.8v-2.8l3.1-3.2l-0.8-7v-2.3l1.8-2.1l-0.8-4.2l5.3-6.7l-6.6-4.8l1.8-5.5l0.8,3.1v-2.5
	l-0.8-5.2l0.5-1.6l0.8-2.7v-5.2l-0.8-2.9l1.8-4.8v-5.2h4.4l5.7-2.4l-1.8-2.3h-8.7l-1.8-1.7l1.8-1.6c1.8-1.6,4.4-1.6,4.4-1.6
	l-5.3-5.1l4-7.9v-2.6l-6.9-2.6l-3.4-2.7L8.3,83.2l6.9-4.2l-3.1-2.6l-1.3-4.5l-2.5-2.7l1.3-2.4l3.8-3.3l-5.1-1.8V48.6l1.9-2.7
	l1.3-2.6l-0.6-11.6L0,30.6l4.5-3.3l9.6-2.9l-0.6-1.8l3.2-3.3L29.5,16l16,0.2L55.7,14l15.4-0.2l16.6-0.2l16.6-0.6c0,0,0-0.8,14.1,0
	s10.3-4.3,10.3-4.3l48.5-1.4l25.6,0.4l23.7-0.9l31.7-2.2c20.7,0.6,39.4,2.3,45.3,2.6c69.3,2.2,69.7,1.8,101,1.8
	c14.1,0.5,31.4-0.7,45.5-0.2c9.2,0.4,28.7,0.2,28.7,0.2s-7.3-5.7-11.1-6.5c-3.6-0.6,12.6,0,11-0.2h9.6c0,0,10.4,0.8,15.6,0.9
	c4.3,0.2,13.3,0.2,13.3,0.2c-4.1,0.8-9.4,6.2-13.5,6.9c79.3,1.2,158.9,2.1,238,3.5c10.6,0.4,59.8-8.5,67.5-9.5
	c8.7-1.3,25.8,4.3,35.2,0.6c6.1-0.4,28.8-0.1,35.3,0.1c12.6,0.4,31.2-0.7,44.2-1c-2.4,0.7-18.9,8.7-21.2,9.4
	c22.8,0.2,56.9,0.7,79.6,0.6c12,0,23.8-0.3,35.7-0.5h45.5c1.2,0.2,2.6,0.3,3.8,0.5c7.1,1.1,141,3.8,129.6,4.4c0,0,9.8-0.8,14.7-1.1
	c3.7-0.3,12.6-5.5,12.6-5.5c4.2,2.4,9.2,4.3,14.3,2.4c0,0,6.5-2.5,9.8-1.6c4.8,1.4,17.2,4.5,23.2,4.6c-1.5-0.6-10.4-13.9-3.1-13.8
	c6.9,0,13.8,1.8,20.7,1.9c6.3-0.5,11.4-1.2,14.1,0.4c4.5,2.7,7.2,10,12.8,9.2c14.1-2.1,11.7-0.9,25.3-1.2c-0.4,0,14-6.9,18.6-7.9
	c3.4-0.9,8.1-1.1,12.2-1.8c4.1-0.5,11.1-5.1,15.2-3.8c3.7,1.1-2,15,2.2,14.1c6.7-3.7,17-1.3,17-1.3s-1.2-0.8,3.4-1
	c2.9-1.4-8.4-1.4-8.4-1.4c3.2,2.7,4.9-1.4,6.4-0.9c0,0,2.9,1.7,3.6,1.7h7.3l6.7,0.3c0,1.2,8,2,8,2c5.5-3.7-9.5-0.2-3.1,0
	c10.4,0.4,5.3,20.5,7.9,22.2l2.1,1.3c-4.9,4-9.8-20.4-9.4-16.1c1,5.3,1.8,8-1,12.9c-3,5.3-3.2,23.6-7,29.5c-0.6,4-2.2,6.9-4.7,8.6
	l1.2,7.6l-7.9,4.5v3.3l7.1,2.8l-0.8,4.5l-7.1,5.1l7.1,2.7l3.9,2.7l-0.8,8.3l0.8,8.5l-2.4,2.3v5.8l0.8,7.7l-6.3,3.3l4.7,3.8l0.8,2.7
	l-7.1,10l4.7,0.2v3.8l-2.4,4.5v3l6.3,4.5l-5.5,4.5l0.8,2.3v2l3.9,4.3l-0.8,4.3l-2.1,6.1l0.6,9.9l1.6-8.3l-2.4,3.8v4.9l2.4,2v5.3
	l-3.1,6.5v3.6l-7.9,1.5v3.1l7.1,0.5v12.8l2.4,3.1l-1.6,5.6v5.8l3.9,4.3l-3.9,4.9l7.1,4v2.8l-3.9,6.1l2,5.3l0,0l0.2,0.3v-0.5
	L1421.7,283.7z"/>
</svg>
