<?xml version="1.0" encoding="UTF-8" standalone="no"?>
<!DOCTYPE svg PUBLIC "-//W3C//DTD SVG 1.1//EN" "http://www.w3.org/Graphics/SVG/1.1/DTD/svg11.dtd">
<svg width="100%" height="100%" viewBox="0 0 1054 529" version="1.1" xmlns="http://www.w3.org/2000/svg" xmlns:xlink="http://www.w3.org/1999/xlink" xml:space="preserve" xmlns:serif="http://www.serif.com/" style="fill-rule:evenodd;clip-rule:evenodd;stroke-linejoin:round;stroke-miterlimit:2;">
    <g transform="matrix(1,0,0,1,-4.2,-0.0434964)">
        <g transform="matrix(1.30156,0,0,0.98265,-1.26653,0.000754644)">
            <path d="M804.8,490.7L804.8,494.4C804.8,497 802.9,507.1 800.7,508.7C798.2,510.5 794,511.6 790.9,512.4C786.4,513.4 776.9,516.6 772.5,516.6C768.1,516.6 764.2,518.7 760.4,518.7C757.2,519 755,521.1 753.4,523.2C753.4,523.2 747,521.4 744.5,519.8C740,519.3 735.9,519 731.5,518.8C727.7,519.6 723.6,520.6 719.7,521.4C714.9,521.1 710.2,521.1 705.1,520.9C700.3,520.6 689.5,520.6 685.1,522.5C681.3,522.8 677.8,522.8 674,522.8C672.1,524.6 670.2,526.5 668.3,528.6C672.4,533.9 675.9,535.2 669.3,537.6C662.9,539.7 665.5,537.3 663.6,533.7L663.9,530C662.6,530.8 661.4,531.3 660.1,532.1C658.5,532.4 654.1,533.4 653.4,531.8C654.7,529.4 655.6,527.3 656.9,525.2C654,524.7 651.5,523.9 648.6,523.4C645.7,524.4 642.9,525.5 640,526.8C635.5,527.3 631.4,527.8 627.3,528.4C621.3,528.9 615.5,528.4 609.5,528.1C563.7,526.5 517.3,526 471.3,524.4C469.7,524.4 468.1,524.7 466.5,524.7C461.7,525.2 437.9,522.3 433.8,520.5C429.3,518.7 417,516.8 411.9,516.3C407.1,515.8 362.3,527.2 354.1,529C350.3,529.8 340.7,531.6 343,529.3C341.7,529.6 340.5,529.6 339.2,529.8C336,530.3 319.8,528.8 317.6,527.7C315.7,526.7 309.7,526.1 309.7,526.1C311,527.9 312.6,530 313.8,531.9C308.1,531.4 302.7,530.9 297.3,530.3C294.4,529 291.9,527.7 289,526.4L289,530.1C287.7,530.6 286.5,531.4 285.2,531.9C283.6,532.2 277.9,530.9 276.9,529.5C278.5,528.5 280.1,527.7 281.7,526.9L281.7,520.9C279.5,519.3 277.6,518 275.3,516.4C275.9,518.5 276.6,520.6 277.2,522.7C271.5,524.5 270.5,526.1 264.2,523.5C261.7,522.7 264.2,523.5 262.3,521.9C260.7,520.9 259.1,520.9 257.2,521.4C256.6,523 256.2,524.8 255.6,526.4C250.8,525.9 238.4,524.3 234,526.4C227,529 220,531.9 213.3,534.6C213.3,534.6 200.9,532.8 195.8,531.2C189.4,529.4 189.1,530.7 187.2,525.7C185.3,521 171.3,523.9 171.3,523.9C161.4,524.7 151.6,525.7 141.7,526.5C139.5,526.2 137.3,526 135.3,525.7C128,528.3 119.7,529.6 111.8,528.9C93.7,526.5 75.9,524.7 58.1,522.3C55.2,521.8 48.2,519.7 48.2,519.7L35.8,518.4L20.2,519.7L14.5,515L7.2,505.7L7.2,485.6L12.3,480.6L10.1,474.6L12.6,458.7L14.2,451.1L15.8,446.1L16.1,444L16.1,437.2L13.2,433.5L12.9,431.1L12.9,426.9L15.1,423L15.4,418.3L15.4,412.5L12.2,408.6C12.2,408.6 12.5,404.7 13.1,403.1C13.7,401.5 13.1,391.4 13.1,391.4L11.8,380.3L12.1,371.8L10.2,367.1L10.2,355.2L11.8,347.6L10.2,345.5L10.2,337.9L10.5,331.3L10.5,323.9L9.9,316.3L9.6,310L9.6,306.3L11.2,301L10.9,289.6L10.9,285.9L11.8,282.5L11.5,275.7L14.4,264.8L10.6,256.8L11.5,247.8L11.8,242.8L11.8,238.9L11.5,230.4L11.8,227.8L12.1,223.3L12.1,214.8L11.8,210.1L12.7,202.1L12.7,192.5L15.2,192.8L18.4,188.9L17.5,185.2L12.7,185.2L11.8,182.3L12.7,179.7C13.6,177.1 15.2,177.1 15.2,177.1L12.3,168.6L14.5,155.6L14.5,151.4L10.7,147.2L8.8,142.7L8.5,122.6L12.6,116L11,111.8L10.4,104.4L9.1,99.9L9.7,96L11.9,90.7L9,87.8L9,66.4L9.9,61.9L10.5,57.7L10.2,38.9L4.2,37.1L6.7,31.8L12.1,27.1L11.8,24.2L13.7,18.9L21,13.6L29.9,13.9L35.6,10.2L44.2,9.9L53.4,9.6L62.6,8.8C62.6,8.8 64.3,10.7 72.3,11.5C79.4,12.2 74.3,6.1 74.3,6.1L102.9,1.8L118.2,5.4L131.3,2.5L149.4,0.9C161.2,1.7 171.3,2.7 174.8,3C213.9,6.7 215,4 231.7,2C240.8,4.1 248.2,4 256.2,4.8C261.3,5.3 272.4,5.1 272.4,5.1C272.4,5.1 267.7,1.8 265.5,0.5C263.6,-0.5 272.5,0.5 271.5,0.2L276.9,0.2C276.9,0.2 282.6,1.5 285.8,1.8C288.3,2.1 293.4,2.1 293.4,2.1C291.2,3.4 288.9,6.2 286.3,7.5C331.1,9.6 377.2,7.8 421.7,10.2C427.7,10.7 462.8,6.7 467.2,4.9C472,2.8 479.8,8.1 483.7,7.3C487.2,6.8 497,5.7 500.4,6C507.4,6.5 517.9,5 525.2,4.2C523.9,5.2 519.9,8.1 518.6,9.4C531.3,9.7 544,10.2 556.7,9.9C563.4,9.6 570,9.4 576.7,9.1C585.3,9.1 593.9,9.4 602.4,9.4C603,9.7 605.9,11.2 606.6,11.4C610.7,13.2 684.1,16.4 677.7,17.2C677.7,17.2 682.2,14 685.1,13.5C687,13 691.5,10.1 691.5,10.1C694,10.4 696.3,10.6 698.8,11.1C698.8,11.1 706.4,10.1 708,11.6C710.9,14 716.2,15.3 719.7,15.5C718.7,14.5 711.9,4.1 716,4.4C719.8,4.4 723.9,4.7 727.8,4.9C731.3,4.1 733.8,5.4 735.4,8.1C737.9,12.6 739,17.7 744.6,12.3C752.5,8.9 751.1,10.2 758.7,10C758.4,10 768.9,9.2 771.4,7.4C773.3,5.8 775.9,5.6 778.4,4.5C780.6,3.7 780.9,2.4 783.5,4.5C785.7,6.3 784.1,9 786.7,7.7C789.6,6.1 795.3,7.7 795.3,7.7C795.3,7.7 795,7.7 797.5,6.9C801.2,5.7 792.7,6.2 792.7,6.2C793.7,6.2 795.6,4.2 796.6,6.1C796.6,6.1 798.2,7.1 798.5,7.1C798.8,7.1 800.4,7.4 800.4,7.4L802.6,7.4L806.4,7.9C806.4,10 809.3,10 809.3,10C814.3,7.7 804.4,8.5 809.3,10C815,10.5 810.9,27.2 812.5,30.1L814,33.2C811.1,39.8 809.6,15 809.6,21.9C810.2,30.7 810.6,34.9 809,43C807.4,51.8 807.1,81.6 805.2,91.1C804.9,97.7 803.9,102.2 802.7,105.1L803.3,117.6L798.8,125L798.8,129.2L802.6,133.9L802.3,141.3L798.5,149.8L802.3,154.3L804.5,158.8L804.2,172.3L804.5,186.3L803.2,190L803.2,199.6L803.5,212.1L800,217.6L802.5,223.6L802.8,228.1L799,244.5L801.5,255.1L801.5,261.4L800.2,268.8L800.2,273.8L803.7,281.2L800.5,288.6L800.8,292.3L800.8,295.5L803,302.3L802.7,309.1L801.4,318.9L801.7,335L802.7,350.9L801.4,357.2L801.4,365.4L802.7,368.6L802.7,377.4L801.1,388L801.1,393.8L796.6,396.4L796.6,401.4L800.4,402.2L800.4,423.1L801.7,428.1L800.7,437.4L800.7,447L802.9,453.8L800.7,462L804.5,468.6L804.5,473.3L802.3,483.1L803.9,491.9L804.8,491.5L804.8,490.7Z" style="fill:rgb(217,255,87);fill-rule:nonzero;"/>
        </g>
    </g>
</svg>
