<?xml version="1.0" encoding="utf-8"?>
<!-- Generator: $$$/GeneralStr/196=Adobe Illustrator 27.6.0, SVG Export Plug-In . SVG Version: 6.00 Build 0)  -->
<svg version="1.1" id="Ebene_1" xmlns="http://www.w3.org/2000/svg" xmlns:xlink="http://www.w3.org/1999/xlink" x="0px" y="0px"
	 viewBox="0 0 792 1330.2" style="enable-background:new 0 0 792 1330.2;" xml:space="preserve">
<style type="text/css">
	.st0{fill:#684DDC;}
</style>
<path class="st0" d="M790.9,56.6c-0.8-3.7-0.1-16.3,0-28h-0.2c0.3-6.6,0.4-14.1-2.9-14.5c0,0-2.8,0-2.8-2.5l-3.7-0.6h-2.2
	c0,0-1.5-0.3-1.9-0.3s-0.4-0.2-0.7-0.4c0,0-0.1,0-0.2,0c-2.5,0.6-2.2,1-2.2,1s-5.6-1.9-8.3,0c-2.5,1.6-0.9-1.6-3.1-3.8s-2.8-1-4.9,0
	c-2.5,1.3-4.9,1.6-6.8,3.5c-2.5,2.2-12.7,3.2-12.4,3.2c-7.4,0.3-6.2-1.9-13.9,2.2c-3.1,1.6-5.9,6-8.3,0.6c-1.5-3.2-4-4.8-7.4-3.8
	c-3.7-0.3-7.7-0.6-11.4-0.6c-4-0.3,2.2,7,3.1,8.3c-3.4-0.3-7.7,0.3-10.5-2.5c-1.5-1.9-9-0.6-9-0.6c-2.5-0.6-4.6-1-7.1-1.3
	c0,0-4.3,3.5-6.2,4.1c-2.4,0.5-6.5,1.8-7.7,2.1c1.2-1.2-67.6-6.3-71.4-8.5c-0.6-0.3-1.5-0.6-2.2-1c-8.3,0-16.7-0.3-25-0.3
	c-6.5,0.3-13,0.6-19.5,1c-12.4,0.3-24.7-0.3-37.1-0.6c1.2-1.6,2.8-2.9,4-4.1c-7.1,1-17.3,2.9-24.1,2.2c-3.4-0.3-10.5-1.3-13.9-0.6
	c-3.7,1-10.8-3.2-15.5-0.6c-4.3,2.2-38.9,4.8-44.8,4.1c-43.3-2.9-86.9-4.4-130.4-7c2.5-1.6,4.6-3.2,6.8-4.8c0,0-4.9,0-7.4-0.3
	c-3.1-0.3-8.7-1.9-8.7-1.9h-5.3c0.9,0.3-7.7-1-5.9,0.3c2.2,1.6,6.8,3.8,6.8,3.8s-10.8,0.3-15.8-0.3c-7.7-1-17.3,1.3-25,0.3
	c-17,0-17.3,5.7-55.3,1.3c-3.4-0.3-13.3-1.6-24.7-2.5l-17.6,1.9l-13,1.9l-13.9-0.6L74.7,9.3c0,0,2.2,5.1-5.6,3.5
	c-7.7-1.6-7.7,0-7.7,0l-9,1l-9,0.3l-8.3,0.3l-5.6,4.4l-8.7-0.3l-7.1,6.4l-1.2,4H11L9.2,41.7l0.3,7.4l-5.3,12L1.7,74.4l5.9,4.7
	l0.3,47.5l-0.6,10.7l-0.9,11.4v54.2l2.8,7.4L7,223.6l-0.6,10.1l1.2,11.4l0.6,18.8l1.6,10.7l-8.6,18l0.3,50.9l6.4,10.2L16,362
	L5.9,374.7l-1.1,34.7l7.4,20c0,0-1.6,0-2.5,6.7l-0.9,6.7l0.9,7.4l10.3-0.6l4.9,10.7l-7.1,8.7H9.7v24.1l-0.9,20.1l0.3,12v21.5
	l-0.3,11.4l-0.3,6.7l0.3,21.5v10.1l-0.3,12.7l-0.9,22.8l6.5,19.5l-5.6,28l0.3,17.5l-0.9,8.7v9.3l0.3,28.9l-1.6,13.3v9.3l0.3,16.1
	l0.6,19.4v18.8l-0.3,16.7v19.4l1.6,5.3l-1.6,19.4v30.2l1.9,12l-0.3,21.5l1.2,28.1c0,0,0.6,25.5,0,29.5s-0.9,14.1-0.9,14.1l6.7,10
	v14.8l-3.9,12.1L4.8,1064v10.7l0.3,6.1l7.7,9.2v17.5l-0.3,5.3l-1.6,12.7l-1.6,19.4L6.8,1185l6.1,15.4L0,1213v50.9l11.1,23.5v0.3
	c0.1,0-0.2,0-0.2,0v2.6l7.1,11.2l5.6,5.7l15.1-1.6l12,1.6c0,0,6.8,2.5,9.6,3.2c17.3,2.9,34.5,5.1,52.1,8c7.7,1,15.7-0.6,22.8-3.8
	c1.9,0.3,4,0.6,6.2,1c9.6-1,19.1-2.2,28.7-3.2c0,0,13.6-3.5,15.4,2.2c1.9,6.1,2.2,4.5,8.3,6.7c4.9,1.9,17,4.1,17,4.1
	c6.5-3.2,13.3-6.7,20-9.9c4.3-2.5,16.3-0.6,21,0c0.6-1.9,0.9-4.1,1.5-6.1c1.9-0.6,3.4-0.6,4.9,0.6c1.9,1.9-0.6,1,1.9,1.9
	c6.2,3.2,7.1,1.3,12.6-1c-0.6-2.5-1.2-5.1-1.9-7.6c2.2,1.9,4,3.5,6.2,5.4v7.3c-1.5,1-3.1,1.9-4.6,3.2c0.9,1.6,6.5,3.2,8,2.9
	c1.2-0.6,2.5-1.6,3.7-2.2v-4.5c2.8,1.6,5.2,3.2,8,4.8c5.2,0.6,10.5,1.3,16,1.9c-1.2-2.2-2.8-4.8-4-7c0,0,5.9,0.6,7.7,1.9
	c2.2,1.3,17.9,3.2,21,2.5c1.2-0.3,2.5-0.3,3.7-0.6c-2.2,2.9,7.1,0.6,10.8-0.3c8-2.2,51.5-15.9,56.1-15.3c4.9,0.6,17,2.9,21.3,5.1
	c4,2.2,27.1,5.7,31.8,5.1c1.5,0,3.1-0.3,4.6-0.3c44.7,1.9,89.7,2.5,134.2,4.5c5.9,0.3,11.4,1,17.3,0.3c4-0.6,8-1.3,12.3-1.9
	c2.8-1.6,5.6-2.9,8.3-4.1c2.8,0.6,5.2,1.6,8,2.2c-1.2,2.5-2.2,5.1-3.4,8c0.6,1.9,4.9,0.6,6.5,0.3c1.2-1,2.5-1.6,3.7-2.5l-0.3,4.5
	c1.9,4.5-0.6,7.3,5.6,4.8c6.5-2.9,3.1-4.5-0.9-10.8c1.9-2.5,3.7-4.8,5.6-7c3.7,0,7.1,0,10.8-0.3c4.3-2.2,14.8-2.2,19.4-1.9
	c4.9,0.3,9.6,0.3,14.2,0.6c3.7-1,7.7-2.2,11.4-3.2c4.3,0.3,8.3,0.6,12.6,1.3c2.5,1.9,8.6,4.1,8.6,4.1c1.5-2.5,3.7-5.1,6.8-5.4
	c3.7,0,7.4-2.5,11.7-2.5s13.6-3.8,17.9-5.1c3.1-1,7.1-2.2,9.6-4.5c0.9-0.8,1.7-3.3,2.4-6.2l0,0c0,0,0-0.1,0-0.2s0-0.4,0-0.4
	c-0.2-12.2-5.1-43.7-5.1-49.4s4-8.6,4-11.3h0.4l-4.6-21.4l5.2-25.6v-12l-3.7-16.7l2.2-20.7l-2.2-17.5v-24.1l0.9-23.4l-1.2-12.7
	v-52.9l-3.7-2.1l-0.8-4.7l4.5-6.8l0.7-22.6l1.6-26.8V915l-3.5-12.7l4.2-16.2l1.7-16.2l-5.9-38.1l4.8-42.5l-4.8-24.2l3.8-18.2
	l-2.2-17.5v-8l-0.3-9.3l8.4-19L774,674.2l5.1-12.4l1.2-18.8v-16.1l-10.1-24.4l11.3-43.9l-0.3-11.4l-9.5-14.5l10.4-15l-0.3-31.5
	v-24.1l1.2-9.3l-0.3-35.5l0.3-34.2l-2.2-11.4l-11.3-11.5l11.3-21.3l0.3-18.8l-9.3-12.3v-10.7l10-18.5l-6.6-31.3
	c1.3-7.3,8.2-18.9,8.5-35.6c1.8-24.1,2.1-99.8,3.7-121.9c1.5-20.7,1.2-31.5,0.6-53.6h0.3c0.5,9.9,1.7,38.2,3.7,26l-1.2-5.3
	L790.9,56.6z M788.1,28.6c0,0,0-0.1,0-0.2c0-2.3,0-1.7,0.3,0.2H788.1z"/>
</svg>
